<svg width="219" height="73" viewBox="0 0 219 73" fill="none" xmlns="http://www.w3.org/2000/svg">
<circle cx="33" cy="33" r="12" stroke="black" stroke-width="6"/>
<mask id="mask0_10_16" style="mask-type:alpha" maskUnits="userSpaceOnUse" x="0" y="0" width="66" height="66">
<circle cx="33" cy="33" r="30" stroke="white" stroke-width="6" stroke-linecap="square" stroke-dasharray="158.5 30 0 158.5 30 0"/>
</mask>
<g mask="url(#mask0_10_16)">
<rect x="46" y="-8" width="26" height="31" fill="black"/>
<rect x="46" y="42" width="26" height="31" fill="black"/>
<rect x="20" y="42" width="26" height="31" fill="black"/>
<rect x="-6" y="42" width="26" height="31" fill="black"/>
<rect x="-6" y="11" width="26" height="31" fill="black"/>
<rect x="-6" y="-20" width="26" height="31" fill="black"/>
<rect x="20" y="-13" width="26" height="31" fill="black"/>
</g>
<path d="M93.4844 62.8438C92.1953 63.0781 90.457 63.1953 88.2695 63.1953C86.0951 63.1953 84.1289 62.8958 82.3711 62.2969C80.6263 61.6979 79.1224 60.8125 77.8594 59.6406C75.151 57.1276 73.7969 53.625 73.7969 49.1328C73.7969 46.2031 74.4935 43.6641 75.8867 41.5156C77.7747 38.612 80.6719 36.763 84.5781 35.9688C85.776 35.7344 87.2018 35.6172 88.8555 35.6172C90.5221 35.6172 91.8568 35.7083 92.8594 35.8906V39.6211C91.9479 39.3346 90.5352 39.1914 88.6211 39.1914C86.7201 39.1914 85.1055 39.4258 83.7773 39.8945C82.4492 40.3633 81.349 41.0339 80.4766 41.9062C78.7318 43.612 77.8594 46.0208 77.8594 49.1328C77.8594 52.2708 78.7188 54.7578 80.4375 56.5938C82.2995 58.5729 84.9753 59.5625 88.4648 59.5625C90.5091 59.5625 92.1823 59.4062 93.4844 59.0938V62.8438ZM107.449 45.8906C105.522 45.8906 103.803 46.5482 102.293 47.8633V63H98.3867V33.9375H102.293V45.0117C104.402 43.3581 106.583 42.5312 108.836 42.5312C111.245 42.5312 113.009 43.2474 114.129 44.6797C115.301 46.1901 115.887 48.625 115.887 51.9844V63H111.98V51.9844C111.98 48.7552 111.102 46.8281 109.344 46.2031C108.784 45.9948 108.152 45.8906 107.449 45.8906ZM134.52 46.418C133.803 46.2096 132.944 46.1055 131.941 46.1055C130.952 46.1055 130.138 46.2096 129.5 46.418C128.862 46.6133 128.302 46.8542 127.82 47.1406C126.935 47.6615 126.29 48.2474 125.887 48.8984V63H121.98V42.8438H125.73L125.887 45.6367C126.863 44.4128 128.289 43.4948 130.164 42.8828C130.841 42.6484 131.616 42.5312 132.488 42.5312C133.361 42.5312 134.038 42.5964 134.52 42.7266V46.418ZM137.078 52.8828C137.078 49.7188 138.087 47.1536 140.105 45.1875C141.993 43.3516 144.331 42.4336 147.117 42.4336C149.852 42.4336 152.137 43.3516 153.973 45.1875C155.926 47.1406 156.902 49.7057 156.902 52.8828C156.902 56.0469 155.919 58.599 153.953 60.5391C152.091 62.388 149.806 63.3125 147.098 63.3125C144.35 63.3125 142.02 62.388 140.105 60.5391C138.087 58.599 137.078 56.0469 137.078 52.8828ZM141.141 52.8828C141.141 56.2161 142.208 58.4818 144.344 59.6797C145.099 60.0964 146.004 60.3047 147.059 60.3047C148.113 60.3047 149.005 60.0964 149.734 59.6797C150.464 59.25 151.062 58.6901 151.531 58C152.404 56.6719 152.84 54.9661 152.84 52.8828C152.84 49.5755 151.792 47.3099 149.695 46.0859C148.966 45.6562 148.094 45.4414 147.078 45.4414C146.062 45.4414 145.177 45.6562 144.422 46.0859C143.68 46.5026 143.068 47.056 142.586 47.7461C141.622 49.1003 141.141 50.8125 141.141 52.8828ZM165.691 47.8633L165.711 63H161.805V42.8438H165.398L165.672 45.0508C167.104 43.8529 168.771 43.0716 170.672 42.707C171.284 42.5898 171.883 42.5312 172.469 42.5312C174.904 42.5312 176.74 43.5599 177.977 45.6172C180.242 43.5599 182.612 42.5312 185.086 42.5312C187.534 42.5312 189.318 43.2669 190.438 44.7383C191.557 46.2357 192.117 48.7096 192.117 52.1602V63H188.211V52.2969C188.211 48.9115 187.397 46.8867 185.77 46.2227C185.223 46.0013 184.585 45.8906 183.855 45.8906C182.111 45.8906 180.509 46.5156 179.051 47.7656V63H175.145V52.1406C175.145 49.8229 174.799 48.1953 174.109 47.2578C173.445 46.3464 172.254 45.8906 170.535 45.8906C168.829 45.8906 167.215 46.5482 165.691 47.8633ZM199.285 59.4062C198.855 58.6641 198.51 57.7917 198.25 56.7891C198.003 55.7865 197.879 54.4779 197.879 52.8633C197.879 51.2487 198.224 49.7643 198.914 48.4102C199.617 47.043 200.529 45.9232 201.648 45.0508C203.823 43.3711 206.525 42.5312 209.754 42.5312C211.434 42.5312 212.703 42.5703 213.562 42.6484C213.562 42.6484 214.194 42.7135 215.457 42.8438V63H211.941L211.785 60.6758C211.004 61.7174 209.812 62.4922 208.211 63C207.599 63.1953 206.967 63.293 206.316 63.293C205.678 63.293 205.047 63.2279 204.422 63.0977C203.797 62.9674 203.172 62.7526 202.547 62.4531C201.935 62.1536 201.349 61.7565 200.789 61.2617C200.229 60.7539 199.728 60.1354 199.285 59.4062ZM211.551 45.7148C210.717 45.6107 209.884 45.5586 209.051 45.5586C208.23 45.5586 207.352 45.7083 206.414 46.0078C205.477 46.2943 204.676 46.75 204.012 47.375C202.632 48.6771 201.941 50.6628 201.941 53.332C201.941 55.8581 202.534 57.7266 203.719 58.9375C204.617 59.8359 205.698 60.2852 206.961 60.2852C208.589 60.2852 209.93 59.6927 210.984 58.5078C211.245 58.2083 211.434 57.9414 211.551 57.707V45.7148Z" fill="black"/>
</svg>
